HIERARCHY
ROOT Hips
{
    OFFSET 0.000000 0.000000 0.000000
    CHANNELS 6 Xposition Yposition Zposition Zrotation Xrotation Yrotation
    JOINT Spine
    {
        OFFSET -0.000000 7.750029 0.000000
        CHANNELS 3 Zrotation Xrotation Yrotation
        JOINT Spine1
        {
            OFFSET -0.000000 19.767460 0.000000
            CHANNELS 3 Zrotation Xrotation Yrotation
            JOINT Neck
            {
                OFFSET -0.000000 19.686279 1.789662
                CHANNELS 3 Zrotation Xrotation Yrotation
                JOINT Head
                {
                    OFFSET -0.000000 13.231757 -1.890251
                    CHANNELS 3 Zrotation Xrotation Yrotation
                    End Site
                    {
                        OFFSET -0.000000 23.628138 0.000000
                    }
                }
            }
            JOINT LeftShoulder
            {
                OFFSET 3.736819 16.910755 -0.280982
                CHANNELS 3 Zrotation Xrotation Yrotation
                JOINT LeftArm
                {
                    OFFSET 13.626117 0.000000 0.000000
                    CHANNELS 3 Zrotation Xrotation Yrotation
                    JOINT LeftForeArm
                    {
                        OFFSET 31.364786 0.000000 0.000000
                        CHANNELS 3 Zrotation Xrotation Yrotation
                        JOINT LeftHand
                        {
                            OFFSET 23.389509 0.000000 0.000000
                            CHANNELS 3 Zrotation Xrotation Yrotation
                            End Site
                            {
                                OFFSET 14.176883 0.000000 0.000000
                            }
                        }
                    }
                }
            }
            JOINT RightShoulder
            {
                OFFSET -3.821718 16.910755 -0.280982
                CHANNELS 3 Zrotation Xrotation Yrotation
                JOINT RightArm
                {
                    OFFSET -13.626117 0.000000 0.000000
                    CHANNELS 3 Zrotation Xrotation Yrotation
                    JOINT RightForeArm
                    {
                        OFFSET -31.364786 0.000000 0.000000
                        CHANNELS 3 Zrotation Xrotation Yrotation
                        JOINT RightHand
                        {
                            OFFSET -23.389509 0.000000 0.000000
                            CHANNELS 3 Zrotation Xrotation Yrotation
                            End Site
                            {
                                OFFSET -14.176883 0.000000 0.000000
                            }
                        }
                    }
                }
            }
        }
    }
    JOINT LeftUpLeg
    {
        OFFSET 9.451255 0.000000 0.000000
        CHANNELS 3 Zrotation Xrotation Yrotation
        JOINT LeftLeg
        {
            OFFSET -0.000000 -41.898624 0.000000
            CHANNELS 3 Zrotation Xrotation Yrotation
            JOINT LeftFoot
            {
                OFFSET -0.000000 -38.481331 0.000000
                CHANNELS 3 Zrotation Xrotation Yrotation
                JOINT LeftToeBase
                {
                    OFFSET -0.000000 -6.143315 14.176883
                    CHANNELS 3 Zrotation Xrotation Yrotation
                    End Site
                    {
                        OFFSET -0.000000 0.000000 3.780502
                    }
                }
            }
        }
    }
    JOINT RightUpLeg
    {
        OFFSET -9.451255 0.000000 0.000000
        CHANNELS 3 Zrotation Xrotation Yrotation
        JOINT RightLeg
        {
            OFFSET -0.000000 -41.898624 0.000000
            CHANNELS 3 Zrotation Xrotation Yrotation
            JOINT RightFoot
            {
                OFFSET -0.000000 -38.481331 0.000000
                CHANNELS 3 Zrotation Xrotation Yrotation
                JOINT RightToeBase
                {
                    OFFSET -0.000000 -6.143315 14.176883
                    CHANNELS 3 Zrotation Xrotation Yrotation
                    End Site
                    {
                        OFFSET -0.000000 0.000000 3.780502
                    }
                }
            }
        }
    }
}
MOTION
Frames:    5
Frame Time:    0.010000
-19.936764    80.879524    -45.637657    -3.356657    9.688310    112.669731    7.366387    0.445367    1.193533    2.337735    9.305666    1.031918    -18.093256    49.645882    26.112520    -17.538456    -18.220505    15.560723    12.883029    -8.163252    -10.187464    -54.453457    8.287737    -21.904993    48.761642    -53.271294    -89.946625    5.904260    -7.157676    1.172087    -9.651591    -8.599926    16.767008    39.353321    27.167896    63.816292    -38.476524    -42.696720    87.309372    -2.000205    -7.521382    -5.375415    1.581217    -30.590673    2.572166    -7.822269    53.022530    -5.654944    -0.194245    -17.499628    18.186037    0.000000    0.000000    0.000000    -20.646574    -15.285062    -7.438833    15.168807    59.216385    1.685121    -11.897004    -37.925243    -33.623096    0.000000    0.000000    0.000000    
-19.931755    80.888306    -45.630550    -3.358552    9.683780    112.652100    7.367270    0.477170    1.202760    2.334730    9.270279    1.044198    -18.083265    49.563431    26.095785    -17.465214    -18.131798    15.600359    12.896933    -8.160848    -10.185028    -54.441933    8.303216    -21.887943    48.767887    -53.277126    -89.955124    5.968616    -7.144626    1.230880    -9.560623    -8.728352    16.915104    39.406120    27.241486    63.573589    -38.470356    -42.744286    87.368507    -2.039301    -7.545761    -5.452375    1.598185    -30.580845    2.607556    -7.799578    53.066914    -6.287656    -0.606970    -17.910345    18.875103    0.000000    0.000000    0.000000    -20.661177    -15.214176    -6.981333    15.961448    58.969543    0.874729    -11.986243    -37.983574    -33.657261    0.000000    0.000000    0.000000    
-19.924215    80.895027    -45.628624    -3.392296    9.665531    112.662125    7.353805    0.429024    1.204243    2.377457    9.294481    1.038586    -18.153521    49.636002    26.158949    -17.468277    -18.267200    15.603389    12.891447    -8.158276    -10.152884    -54.429310    8.309109    -21.900566    48.761890    -53.273975    -89.958954    5.927413    -7.144917    1.222760    -9.594269    -8.731670    16.910709    39.414925    27.235321    63.607117    -38.518436    -42.745926    87.295036    -1.997229    -7.547482    -5.436481    1.604300    -30.608486    2.625386    -7.770735    53.056229    -6.297613    0.024855    -17.526628    18.730885    0.000000    0.000000    0.000000    -20.673811    -15.227976    -7.031786    15.957123    58.948830    0.865148    -11.937547    -38.006290    -33.592155    0.000000    0.000000    0.000000    
-19.919277    80.901543    -45.625271    -3.409114    9.661514    112.662781    7.355100    0.430346    1.216250    2.371938    9.277740    1.051460    -17.973465    49.530445    26.022177    -17.460102    -18.059927    15.582861    12.914662    -8.157980    -10.150331    -54.434692    8.302288    -21.913382    48.858631    -53.236542    -89.908867    5.950404    -6.984501    1.401599    -9.549539    -8.781012    16.930088    39.463509    27.250689    63.524414    -38.477512    -42.735195    87.332878    -2.011350    -7.553532    -5.412053    1.600267    -30.615734    2.674297    -7.688491    53.054066    -6.399922    0.017197    -17.530645    18.747881    0.000000    0.000000    0.000000    -20.693680    -15.218145    -7.056545    15.986112    58.902828    0.828403    -11.893458    -38.029148    -33.547409    0.000000    0.000000    0.000000    
-19.908800    80.912109    -45.614925    -3.403332    9.629096    112.638145    7.364530    0.433188    1.230463    2.413736    9.284659    1.062337    -17.948235    49.564915    26.000498    -17.482418    -18.099684    15.549062    12.889943    -8.194498    -10.150474    -54.430256    8.283410    -21.879795    48.802685    -53.217804    -89.980919    5.936281    -6.954742    1.433382    -9.577270    -8.786685    16.924410    39.490063    27.232910    63.532974    -38.073971    -42.649624    87.635300    -2.395740    -7.676836    -5.476312    1.658266    -30.569262    2.442355    -8.013248    52.928883    -5.998641    -0.012983    -17.562073    18.722910    0.000000    0.000000    0.000000    -20.651861    -15.223333    -7.073650    15.946549    58.881783    0.827924    -11.895575    -37.977585    -33.502396    0.000000    0.000000    0.000000    
